<svg width="250" height="60" viewBox="0 0 170 37" fill="none" xmlns="http://www.w3.org/2000/svg">
<path d="M158.227 36.368C151.005 36.368 146.129 30.848 146.129 23.948C146.129 17.094 151.051 11.436 157.997 11.436C163.793 11.436 168.807 15.346 169.359 23.304H147.923V23.856V24.04C147.923 29.882 152.017 34.62 158.227 34.62C162.551 34.62 165.955 32.366 167.749 28.824L169.267 29.606C167.703 32.688 164.115 36.368 158.227 36.368ZM148.153 21.602H167.381C166.323 15.668 162.229 13.184 157.951 13.184C152.753 13.184 149.027 16.864 148.153 21.602Z" fill="#816eed"/>
<path d="M139.37 36V13.46H136.334V11.758H139.37V4.72001L141.118 3.8V11.758H144.338V13.46H141.118V36H139.37Z" fill="#816eed"/>
<path d="M130.648 36V0.626007H132.396V36H130.648Z" fill="#816eed"/>
<path d="M116.137 36.368C108.915 36.368 104.039 30.848 104.039 23.948C104.039 17.094 108.961 11.436 115.907 11.436C121.703 11.436 126.717 15.346 127.269 23.304H105.833V23.856V24.04C105.833 29.882 109.927 34.62 116.137 34.62C120.461 34.62 123.865 32.366 125.659 28.824L127.177 29.606C125.613 32.688 122.025 36.368 116.137 36.368ZM106.063 21.602H125.291C124.233 15.668 120.139 13.184 115.861 13.184C110.663 13.184 106.937 16.864 106.063 21.602Z" fill="#816eed"/>
<path d="M92.9823 36L83.3223 11.758H85.3003L93.7183 33.286L102.136 11.758H104.068L94.4543 36H92.9823Z" fill="#816eed"/>
<path d="M68.1103 36.46C61.4403 36.46 56.0583 31.262 56.0583 23.856C56.0583 16.45 61.4403 11.252 68.1103 11.252C71.7443 11.252 75.0103 12.816 76.7123 15.392L76.7583 11.712H80.5763V36H76.7583L76.7123 32.32C75.0103 34.896 71.7443 36.46 68.1103 36.46ZM60.2903 23.856C60.2903 28.916 63.8323 32.504 68.5703 32.504C73.0323 32.504 76.6663 29.422 76.6663 23.856C76.6663 18.29 73.0323 15.162 68.5703 15.162C63.8323 15.162 60.2903 18.75 60.2903 23.856Z" fill="#816eed"/>
<path d="M45.3716 19.348C45.3716 14.104 47.8556 11.712 52.8696 11.712H55.5836V15.576H53.2376C50.6616 15.576 49.6036 16.542 49.6036 19.302V36H45.3716V19.348Z" fill="#816eed"/>
<path d="M29.8136 36.46C23.1436 36.46 17.7616 31.262 17.7616 23.856C17.7616 16.45 23.1436 11.252 29.8136 11.252C33.4476 11.252 36.7136 12.816 38.4156 15.392L38.4616 11.712H42.2796V36H38.4616L38.4156 32.32C36.7136 34.896 33.4476 36.46 29.8136 36.46ZM21.9936 23.856C21.9936 28.916 25.5356 32.504 30.2736 32.504C34.7356 32.504 38.3696 29.422 38.3696 23.856C38.3696 18.29 34.7356 15.162 30.2736 15.162C25.5356 15.162 21.9936 18.75 21.9936 23.856Z" fill="#816eed"/>
<path d="M0.139999 36V2.28201H4.556V31.86H17.528V36H0.139999Z" fill="#816eed"/>
</svg>